
<svg width="17" height="14" viewBox="0 0 17 14" fill="none" xmlns="http://www.w3.org/2000/svg">
<path d="M14.0363 1.83051C13.0229 1.3398 11.9258 0.983648 10.7829 0.777868C10.7729 0.777536 10.7629 0.779489 10.7537 0.783591C10.7445 0.787694 10.7362 0.793845 10.7296 0.801612C10.5924 1.06279 10.4324 1.40312 10.3257 1.6643C9.11351 1.47435 7.88071 1.47435 6.66849 1.6643C6.56182 1.39521 6.40182 1.06279 6.25705 0.801612C6.24943 0.785783 6.22657 0.777868 6.20372 0.777868C5.06083 0.983648 3.97127 1.3398 2.95029 1.83051C2.94267 1.83051 2.93505 1.83842 2.92744 1.84634C0.854997 5.06758 0.283553 8.20176 0.565466 11.3043C0.565466 11.3201 0.573085 11.3359 0.588323 11.3439C1.95979 12.3886 3.27792 13.0217 4.58081 13.4412C4.60367 13.4491 4.62653 13.4412 4.63415 13.4254C4.93892 12.9901 5.21321 12.531 5.44941 12.0483C5.46465 12.0166 5.44941 11.9849 5.41893 11.977C4.98463 11.8029 4.57319 11.5971 4.16937 11.3597C4.1389 11.3439 4.1389 11.2964 4.16175 11.2726C4.24557 11.2093 4.32938 11.1381 4.41319 11.0748C4.42843 11.0589 4.45129 11.0589 4.46652 11.0668C7.08755 12.3094 9.91429 12.3094 12.5048 11.0668C12.5201 11.0589 12.5429 11.0589 12.5582 11.0748C12.642 11.146 12.7258 11.2093 12.8096 11.2805C12.8401 11.3043 12.8401 11.3518 12.802 11.3676C12.4058 11.6129 11.9867 11.8108 11.5524 11.9849C11.522 11.9928 11.5143 12.0324 11.522 12.0562C11.7658 12.539 12.0401 12.998 12.3372 13.4333C12.3601 13.4412 12.3829 13.4491 12.4058 13.4412C13.7163 13.0217 15.0344 12.3886 16.4059 11.3439C16.4211 11.3359 16.4288 11.3201 16.4288 11.3043C16.764 7.71897 15.8726 4.60853 14.0668 1.84634C14.0592 1.83842 14.0515 1.83051 14.0363 1.83051V1.83051ZM5.84561 9.41269C5.06083 9.41269 4.40557 8.6608 4.40557 7.7348C4.40557 6.80879 5.04559 6.0569 5.84561 6.0569C6.65325 6.0569 7.29327 6.8167 7.28565 7.7348C7.28565 8.6608 6.64563 9.41269 5.84561 9.41269ZM11.1562 9.41269C10.3714 9.41269 9.71619 8.6608 9.71619 7.7348C9.71619 6.80879 10.3562 6.0569 11.1562 6.0569C11.9639 6.0569 12.6039 6.8167 12.5963 7.7348C12.5963 8.6608 11.9639 9.41269 11.1562 9.41269Z" fill="white"/>
</svg>
