<svg width="140" height="148" viewBox="0 0 140 148" fill="none" xmlns="http://www.w3.org/2000/svg">
<g filter="url(#filter0_d_10_2320)">
<g filter="url(#filter1_d_10_2320)">
<circle cx="70" cy="70" r="50" fill="url(#paint0_radial_10_2320)" shape-rendering="crispEdges"/>
</g>
<g filter="url(#filter2_d_10_2320)">
<circle cx="70" cy="70" r="45" fill="white" fill-opacity="0.7" shape-rendering="crispEdges"/>
</g>
<g filter="url(#filter3_d_10_2320)">
<circle cx="70" cy="70" r="36" fill="white"/>
<circle cx="70" cy="70" r="34.5" stroke="url(#paint1_linear_10_2320)" stroke-width="3"/>
</g>
<path d="M60.6667 71.3333L75.56 71.3333L69.0533 77.84C68.5333 78.36 68.5333 79.2133 69.0533 79.7333C69.1767 79.8569 69.3232 79.955 69.4845 80.0219C69.6458 80.0888 69.8187 80.1233 69.9933 80.1233C70.168 80.1233 70.3409 80.0888 70.5022 80.0219C70.6635 79.955 70.81 79.8569 70.9333 79.7333L79.72 70.9467C79.8436 70.8233 79.9417 70.6768 80.0086 70.5155C80.0755 70.3542 80.1099 70.1813 80.1099 70.0067C80.1099 69.8321 80.0755 69.6591 80.0086 69.4978C79.9417 69.3366 79.8436 69.19 79.72 69.0667L70.9467 60.2667C70.8232 60.1432 70.6767 60.0453 70.5154 59.9785C70.3541 59.9117 70.1812 59.8773 70.0067 59.8773C69.8321 59.8773 69.6592 59.9117 69.4979 59.9785C69.3367 60.0453 69.1901 60.1432 69.0667 60.2667C68.9432 60.3901 68.8453 60.5367 68.7785 60.698C68.7117 60.8592 68.6773 61.0321 68.6773 61.2067C68.6773 61.3813 68.7117 61.5541 68.7785 61.7154C68.8453 61.8767 68.9432 62.0232 69.0667 62.1467L75.56 68.6667L60.6667 68.6667C59.9333 68.6667 59.3333 69.2667 59.3333 70C59.3333 70.7333 59.9333 71.3333 60.6667 71.3333Z" fill="url(#paint2_linear_10_2320)"/>
</g>
<defs>
<filter id="filter0_d_10_2320" x="-4" y="0" width="148" height="148" filterUnits="userSpaceOnUse" color-interpolation-filters="sRGB">
<feFlood flood-opacity="0" result="BackgroundImageFix"/>
<feColorMatrix in="SourceAlpha" type="matrix" values="0 0 0 0 0 0 0 0 0 0 0 0 0 0 0 0 0 0 127 0" result="hardAlpha"/>
<feOffset dy="4"/>
<feGaussianBlur stdDeviation="12"/>
<feComposite in2="hardAlpha" operator="out"/>
<feColorMatrix type="matrix" values="0 0 0 0 0 0 0 0 0 0 0 0 0 0 0 0 0 0 0.1 0"/>
<feBlend mode="normal" in2="BackgroundImageFix" result="effect1_dropShadow_10_2320"/>
<feBlend mode="normal" in="SourceGraphic" in2="effect1_dropShadow_10_2320" result="shape"/>
</filter>
<filter id="filter1_d_10_2320" x="6" y="6" width="128" height="128" filterUnits="userSpaceOnUse" color-interpolation-filters="sRGB">
<feFlood flood-opacity="0" result="BackgroundImageFix"/>
<feColorMatrix in="SourceAlpha" type="matrix" values="0 0 0 0 0 0 0 0 0 0 0 0 0 0 0 0 0 0 127 0" result="hardAlpha"/>
<feOffset/>
<feGaussianBlur stdDeviation="7"/>
<feComposite in2="hardAlpha" operator="out"/>
<feColorMatrix type="matrix" values="0 0 0 0 0 0 0 0 0 0 0 0 0 0 0 0 0 0 0.15 0"/>
<feBlend mode="normal" in2="BackgroundImageFix" result="effect1_dropShadow_10_2320"/>
<feBlend mode="normal" in="SourceGraphic" in2="effect1_dropShadow_10_2320" result="shape"/>
</filter>
<filter id="filter2_d_10_2320" x="11" y="11" width="118" height="118" filterUnits="userSpaceOnUse" color-interpolation-filters="sRGB">
<feFlood flood-opacity="0" result="BackgroundImageFix"/>
<feColorMatrix in="SourceAlpha" type="matrix" values="0 0 0 0 0 0 0 0 0 0 0 0 0 0 0 0 0 0 127 0" result="hardAlpha"/>
<feOffset/>
<feGaussianBlur stdDeviation="7"/>
<feComposite in2="hardAlpha" operator="out"/>
<feColorMatrix type="matrix" values="0 0 0 0 0 0 0 0 0 0 0 0 0 0 0 0 0 0 0.15 0"/>
<feBlend mode="normal" in2="BackgroundImageFix" result="effect1_dropShadow_10_2320"/>
<feBlend mode="normal" in="SourceGraphic" in2="effect1_dropShadow_10_2320" result="shape"/>
</filter>
<filter id="filter3_d_10_2320" x="14" y="14" width="112" height="112" filterUnits="userSpaceOnUse" color-interpolation-filters="sRGB">
<feFlood flood-opacity="0" result="BackgroundImageFix"/>
<feColorMatrix in="SourceAlpha" type="matrix" values="0 0 0 0 0 0 0 0 0 0 0 0 0 0 0 0 0 0 127 0" result="hardAlpha"/>
<feOffset/>
<feGaussianBlur stdDeviation="10"/>
<feComposite in2="hardAlpha" operator="out"/>
<feColorMatrix type="matrix" values="0 0 0 0 0 0 0 0 0 0 0 0 0 0 0 0 0 0 0.35 0"/>
<feBlend mode="normal" in2="BackgroundImageFix" result="effect1_dropShadow_10_2320"/>
<feBlend mode="normal" in="SourceGraphic" in2="effect1_dropShadow_10_2320" result="shape"/>
</filter>
<radialGradient id="paint0_radial_10_2320" cx="0" cy="0" r="1" gradientUnits="userSpaceOnUse" gradientTransform="translate(70 70) rotate(90) scale(50)">
<stop stop-color="white"/>
<stop offset="1" stop-color="white" stop-opacity="0"/>
</radialGradient>
<linearGradient id="paint1_linear_10_2320" x1="34" y1="34" x2="106" y2="106" gradientUnits="userSpaceOnUse">
<stop stop-color="#29E8FC"/>
<stop offset="1" stop-color="#7C54F2"/>
</linearGradient>
<linearGradient id="paint2_linear_10_2320" x1="80.1099" y1="59.8773" x2="59.8707" y2="80.647" gradientUnits="userSpaceOnUse">
<stop stop-color="#29E8FC"/>
<stop offset="1" stop-color="#7C54F2"/>
</linearGradient>
</defs>
</svg>
