<svg width="140" height="140" viewBox="0 0 140 140" fill="none" xmlns="http://www.w3.org/2000/svg">
<g filter="url(#filter0_d_10_2326)">
<g filter="url(#filter1_d_10_2326)">
<circle cx="70" cy="70" r="50" fill="url(#paint0_radial_10_2326)" shape-rendering="crispEdges"/>
</g>
<g filter="url(#filter2_d_10_2326)">
<circle cx="70" cy="70" r="45" fill="white" fill-opacity="0.7" shape-rendering="crispEdges"/>
</g>
<g opacity="0.8" filter="url(#filter3_d_10_2326)">
<circle cx="70" cy="70" r="36" fill="white"/>
<circle cx="70" cy="70" r="34.5" stroke="url(#paint1_linear_10_2326)" stroke-width="3"/>
</g>
<path opacity="0.3" d="M60.6666 71.3333L75.5599 71.3333L69.0533 77.84C68.5333 78.36 68.5333 79.2133 69.0533 79.7333C69.1766 79.8569 69.3231 79.955 69.4844 80.0219C69.6457 80.0888 69.8186 80.1233 69.9933 80.1233C70.1679 80.1233 70.3408 80.0888 70.5021 80.0219C70.6634 79.955 70.8099 79.8569 70.9333 79.7333L79.7199 70.9467C79.8435 70.8233 79.9416 70.6768 80.0085 70.5155C80.0754 70.3542 80.1099 70.1813 80.1099 70.0067C80.1099 69.8321 80.0754 69.6591 80.0085 69.4978C79.9416 69.3366 79.8435 69.19 79.7199 69.0667L70.9466 60.2667C70.8232 60.1432 70.6766 60.0453 70.5153 59.9785C70.354 59.9117 70.1812 59.8773 70.0066 59.8773C69.832 59.8773 69.6592 59.9117 69.4979 59.9785C69.3366 60.0453 69.19 60.1432 69.0666 60.2667C68.9432 60.3901 68.8452 60.5367 68.7784 60.698C68.7116 60.8592 68.6772 61.0321 68.6772 61.2067C68.6772 61.3813 68.7116 61.5541 68.7784 61.7154C68.8452 61.8767 68.9432 62.0232 69.0666 62.1467L75.5599 68.6667L60.6666 68.6667C59.9333 68.6667 59.3333 69.2667 59.3333 70C59.3333 70.7333 59.9333 71.3333 60.6666 71.3333Z" fill="#111111"/>
</g>
<defs>
<filter id="filter0_d_10_2326" x="-4" y="0" width="148" height="148" filterUnits="userSpaceOnUse" color-interpolation-filters="sRGB">
<feFlood flood-opacity="0" result="BackgroundImageFix"/>
<feColorMatrix in="SourceAlpha" type="matrix" values="0 0 0 0 0 0 0 0 0 0 0 0 0 0 0 0 0 0 127 0" result="hardAlpha"/>
<feOffset dy="4"/>
<feGaussianBlur stdDeviation="12"/>
<feComposite in2="hardAlpha" operator="out"/>
<feColorMatrix type="matrix" values="0 0 0 0 0 0 0 0 0 0 0 0 0 0 0 0 0 0 0.1 0"/>
<feBlend mode="normal" in2="BackgroundImageFix" result="effect1_dropShadow_10_2326"/>
<feBlend mode="normal" in="SourceGraphic" in2="effect1_dropShadow_10_2326" result="shape"/>
</filter>
<filter id="filter1_d_10_2326" x="6" y="6" width="128" height="128" filterUnits="userSpaceOnUse" color-interpolation-filters="sRGB">
<feFlood flood-opacity="0" result="BackgroundImageFix"/>
<feColorMatrix in="SourceAlpha" type="matrix" values="0 0 0 0 0 0 0 0 0 0 0 0 0 0 0 0 0 0 127 0" result="hardAlpha"/>
<feOffset/>
<feGaussianBlur stdDeviation="7"/>
<feComposite in2="hardAlpha" operator="out"/>
<feColorMatrix type="matrix" values="0 0 0 0 0 0 0 0 0 0 0 0 0 0 0 0 0 0 0.15 0"/>
<feBlend mode="normal" in2="BackgroundImageFix" result="effect1_dropShadow_10_2326"/>
<feBlend mode="normal" in="SourceGraphic" in2="effect1_dropShadow_10_2326" result="shape"/>
</filter>
<filter id="filter2_d_10_2326" x="11" y="11" width="118" height="118" filterUnits="userSpaceOnUse" color-interpolation-filters="sRGB">
<feFlood flood-opacity="0" result="BackgroundImageFix"/>
<feColorMatrix in="SourceAlpha" type="matrix" values="0 0 0 0 0 0 0 0 0 0 0 0 0 0 0 0 0 0 127 0" result="hardAlpha"/>
<feOffset/>
<feGaussianBlur stdDeviation="7"/>
<feComposite in2="hardAlpha" operator="out"/>
<feColorMatrix type="matrix" values="0 0 0 0 0 0 0 0 0 0 0 0 0 0 0 0 0 0 0.15 0"/>
<feBlend mode="normal" in2="BackgroundImageFix" result="effect1_dropShadow_10_2326"/>
<feBlend mode="normal" in="SourceGraphic" in2="effect1_dropShadow_10_2326" result="shape"/>
</filter>
<filter id="filter3_d_10_2326" x="14" y="14" width="112" height="112" filterUnits="userSpaceOnUse" color-interpolation-filters="sRGB">
<feFlood flood-opacity="0" result="BackgroundImageFix"/>
<feColorMatrix in="SourceAlpha" type="matrix" values="0 0 0 0 0 0 0 0 0 0 0 0 0 0 0 0 0 0 127 0" result="hardAlpha"/>
<feOffset/>
<feGaussianBlur stdDeviation="10"/>
<feComposite in2="hardAlpha" operator="out"/>
<feColorMatrix type="matrix" values="0 0 0 0 0 0 0 0 0 0 0 0 0 0 0 0 0 0 0.15 0"/>
<feBlend mode="normal" in2="BackgroundImageFix" result="effect1_dropShadow_10_2326"/>
<feBlend mode="normal" in="SourceGraphic" in2="effect1_dropShadow_10_2326" result="shape"/>
</filter>
<radialGradient id="paint0_radial_10_2326" cx="0" cy="0" r="1" gradientUnits="userSpaceOnUse" gradientTransform="translate(70 70) rotate(90) scale(50)">
<stop stop-color="white"/>
<stop offset="1" stop-color="white" stop-opacity="0"/>
</radialGradient>
<linearGradient id="paint1_linear_10_2326" x1="34.7071" y1="34" x2="97.2521" y2="112.932" gradientUnits="userSpaceOnUse">
<stop stop-color="#1B1B1B"/>
<stop offset="0.71875" stop-color="#1B1B1B" stop-opacity="0.333333"/>
<stop offset="1" stop-color="#292929" stop-opacity="0"/>
</linearGradient>
</defs>
</svg>
