<svg width="17" height="14" viewBox="0 0 17 14" fill="none" xmlns="http://www.w3.org/2000/svg">
<path d="M5.86991 11.2292L2.55608 7.73373C2.37752 7.54539 2.13534 7.43957 1.88281 7.43957C1.63029 7.43957 1.3881 7.54539 1.20954 7.73373C1.03098 7.92208 0.930664 8.17754 0.930664 8.4439C0.930664 8.57579 0.955292 8.70639 1.00314 8.82824C1.05099 8.95009 1.12113 9.06081 1.20954 9.15407L5.20142 13.3647C5.57386 13.7576 6.17551 13.7576 6.54796 13.3647L16.6518 2.70717C16.8304 2.51882 16.9307 2.26337 16.9307 1.997C16.9307 1.73064 16.8304 1.47518 16.6518 1.28684C16.4732 1.09849 16.231 0.992676 15.9785 0.992676C15.726 0.992676 15.4838 1.09849 15.3052 1.28684L5.86991 11.2292Z" fill="white"/>
</svg>
