<svg width="16" height="16" viewBox="0 0 16 16" fill="none" xmlns="http://www.w3.org/2000/svg">
<path d="M14 3.73529C13.5583 3.95147 13.0822 4.09353 12.5889 4.16147C13.0937 3.83412 13.4837 3.31529 13.6673 2.69147C13.1912 3.00029 12.6635 3.21647 12.1071 3.34C11.6539 2.80882 11.0172 2.5 10.2945 2.5C8.94646 2.5 7.84512 3.68588 7.84512 5.14971C7.84512 5.35971 7.86807 5.56353 7.90822 5.755C5.86616 5.64382 4.0478 4.58765 2.83748 2.98794C2.62524 3.37706 2.50478 3.83412 2.50478 4.31588C2.50478 5.23618 2.93499 6.05147 3.60038 6.51471C3.19312 6.51471 2.81453 6.39118 2.48184 6.20588V6.22441C2.48184 7.50912 3.33078 8.58382 4.45507 8.82471C4.09411 8.93107 3.71516 8.94587 3.34799 8.86794C3.50379 9.39447 3.80891 9.85519 4.22047 10.1853C4.63202 10.5155 5.12932 10.6985 5.64245 10.7085C4.77264 11.45 3.69445 11.8508 2.58509 11.845C2.39006 11.845 2.19503 11.8326 2 11.8079C3.08987 12.5615 4.38623 13 5.77438 13C10.2945 13 12.7782 8.96059 12.7782 5.45853C12.7782 5.34118 12.7782 5.23 12.7725 5.11265C13.2543 4.74206 13.6673 4.27265 14 3.73529V3.73529Z" fill="white"/>
</svg>
